PathFileType	4	(X/Y/Z)	./resultDataOpenSim/trcMotMarkerGrf/sub10/qtm-13-03.trc
DataRate	CameraRate	NumFrames	NumMarkers	Units	OrigDataRate	OrigDataStartFrame	OrigNumFrames
250.000000	250.000000	8	24	m	250.000000	61	486
Frame#	Time	L.Toe.Tip			R.Toe.Tip			L.Ankle.Lat			R.Ankle.Lat			L.Ankle.Med			R.Ankle.Med			L.Heel			R.Heel			L.Knee.Lat			R.Knee.Lat			L.Knee.Med			R.Knee.Med			L.Thigh.Upper			R.Thigh.Upper			L.ASIS			R.ASIS			V.Sacral			L.Acromium			R.Acromium			C7			L.Elbow			R.Elbow			L.Wrist.Lat			R.Wrist.Lat
		X1	Y1	Z1	X2	Y2	Z2	X3	Y3	Z3	X4	Y4	Z4	X5	Y5	Z5	X6	Y6	Z6	X7	Y7	Z7	X8	Y8	Z8	X9	Y9	Z9	X10	Y10	Z10	X11	Y11	Z11	X12	Y12	Z12	X13	Y13	Z13	X14	Y14	Z14	X15	Y15	Z15	X16	Y16	Z16	X17	Y17	Z17	X18	Y18	Z18	X19	Y19	Z19	X20	Y20	Z20	X21	Y21	Z21	X22	Y22	Z22	X23	Y23	Z23	X24	Y24	Z24

61	0.24	-1.327763	0.074979808	-0.11635811	-0.82996605	0.039296259	0.1281419	-1.3317146	0.21230157	-0.15269755	-0.96882393	0.054926877	0.16700001	-1.3062011	0.21074944	-0.072895618	-0.95296864	0.07913855	0.082626614	-1.3810604	0.25768443	-0.10760758	-1.0227907	0.031101139	0.11915805	-1.0231186	0.42490537	-0.16269181	-0.92229088	0.45485831	0.17730588	-1.0086093	0.3861249	-0.046190082	-0.91925195	0.45538116	0.049500757	-1.0379752	0.80204226	-0.1719529	-1.0131385	0.86359544	0.21125697	-0.97929768	0.91831299	-0.11571477	-0.95659253	0.95307356	0.12850884	-1.168555	0.93719097	0.022344938	-1.0100023	1.3974322	-0.13704666	-1.0666099	1.3898375	0.18129458	-1.1225619	1.4288642	0.0082894889	-1.1013344	1.0714573	-0.24285117	-1.2171365	1.0811292	0.21969083	-0.94786914	0.88007068	-0.19622023	-1.1920815	0.87341714	0.34424211
62	0.244	-1.3110632	0.074888151	-0.11501497	-0.82992774	0.039292248	0.12810991	-1.3190185	0.21209645	-0.15086197	-0.96835227	0.055015836	0.16674727	-1.293794	0.21108506	-0.071084602	-0.95284948	0.07910184	0.082410915	-1.3698884	0.25598235	-0.1059825	-1.0227914	0.031077424	0.119082	-1.0116857	0.42631248	-0.16138588	-0.92022695	0.45467028	0.17751872	-0.99673665	0.38792816	-0.045048947	-0.91744537	0.4553637	0.049648017	-1.0324345	0.80324155	-0.17097048	-1.0084828	0.8639751	0.21193139	-0.97397557	0.91944968	-0.11520158	-0.95122327	0.95374197	0.12969812	-1.1632031	0.93775338	0.022691292	-1.0045152	1.3981833	-0.13639769	-1.0604339	1.3907903	0.18212965	-1.1168235	1.429814	0.0091609021	-1.0978045	1.0728059	-0.24193837	-1.2095599	1.081395	0.22097256	-0.94650853	0.87951753	-0.19731662	-1.1841553	0.87350915	0.3451389
63	0.248	-1.2941016	0.074652476	-0.11369789	-0.82988504	0.039296122	0.12808097	-1.3061745	0.21167854	-0.14897905	-0.96788971	0.055092529	0.1664772	-1.2810022	0.21123291	-0.069289293	-0.952688	0.079062137	0.082183351	-1.3584815	0.25399927	-0.10424078	-1.0227759	0.031087502	0.11899248	-1.0004331	0.42768522	-0.15994647	-0.91825469	0.45448707	0.17769414	-0.98482699	0.38984381	-0.043845049	-0.91559642	0.45534747	0.049761327	-1.027095	0.8044488	-0.17021143	-1.0039129	0.86435277	0.21256963	-0.9684282	0.92066604	-0.11468352	-0.94602969	0.9544277	0.13086871	-1.1578544	0.93875992	0.023376946	-0.99906831	1.3989644	-0.13575999	-1.0542871	1.3917795	0.1829519	-1.1110918	1.4307847	0.010029397	-1.0942658	1.0741854	-0.24099333	-1.2020088	1.0816854	0.22218342	-0.94518895	0.87903798	-0.19837895	-1.1762665	0.87359208	0.34596575
64	0.252	-1.2768767	0.074291959	-0.11241587	-0.82984817	0.039302865	0.12805452	-1.2931723	0.21099126	-0.14706345	-0.96752436	0.055167185	0.16622036	-1.2678899	0.21110283	-0.067466207	-0.9525438	0.079020247	0.081955254	-1.3468478	0.25174732	-0.10232718	-1.0227526	0.031132177	0.11888827	-0.9892111	0.42912975	-0.15858073	-0.91646172	0.45429958	0.1778441	-0.97299304	0.39183934	-0.042581616	-0.91377648	0.45532266	0.049860689	-1.0219204	0.80565237	-0.16965436	-0.99936483	0.86474025	0.21318755	-0.96270626	0.92196001	-0.11416049	-0.94097905	0.95513385	0.13202846	-1.1525779	0.94011531	0.024227568	-0.99367199	1.3997731	-0.13514617	-1.0481059	1.3928125	0.18374828	-1.105363	1.4317744	0.010891907	-1.0907197	1.0755974	-0.2400149	-1.1944587	1.082019	0.22338309	-0.94391197	0.878627	-0.19941535	-1.1683412	0.87367684	0.34671492
65	0.256	-1.2594366	0.073831797	-0.11120209	-0.82982703	0.039307645	0.12802775	-1.2799993	0.2099733	-0.145124	-0.96727815	0.055257253	0.16598921	-1.2545817	0.21060805	-0.065579736	-0.95247002	0.078977927	0.081728634	-1.3349691	0.249236	-0.10027514	-1.0227351	0.031198185	0.11878353	-0.97791937	0.43071199	-0.15743596	-0.91483333	0.45410918	0.17797924	-0.96129411	0.39388004	-0.041276846	-0.91200856	0.45528528	0.049955742	-1.0167994	0.8068633	-0.16917977	-0.99482817	0.86514757	0.2137878	-0.95703924	0.9233065	-0.11363451	-0.93597002	0.95586807	0.13319599	-1.1472907	0.94117912	0.02479737	-0.98832163	1.4005992	-0.13456606	-1.0418851	1.3938863	0.18452185	-1.0996354	1.4327693	0.011732518	-1.0871741	1.0770451	-0.23900962	-1.1868902	1.0823988	0.22461263	-0.94267063	0.87827496	-0.20042627	-1.1601758	0.87377731	0.34741928
66	0.26	-1.2418094	0.073311012	-0.11008886	-0.82982717	0.039308752	0.12799921	-1.2666739	0.20859623	-0.14313453	-0.96721775	0.055364701	0.16578605	-1.2411857	0.20972823	-0.06361995	-0.95247169	0.078941762	0.081496835	-1.3228174	0.24647014	-0.098122026	-1.022742	0.031281006	0.11869657	-0.96660124	0.43239488	-0.15644678	-0.91330483	0.4539234	0.17810803	-0.94971398	0.39594722	-0.039936648	-0.91030667	0.45522758	0.050041477	-1.0116201	0.80809628	-0.16867286	-0.99031919	0.86556666	0.21436929	-0.95164396	0.92468517	-0.11310078	-0.93095584	0.95663382	0.13437711	-1.1418728	0.94144959	0.024780219	-0.98300886	1.4014375	-0.1340114	-1.0356691	1.3949735	0.18527842	-1.0939191	1.4337655	0.012543018	-1.0836428	1.0785269	-0.23799356	-1.1792787	1.0828082	0.22594381	-0.94145154	0.87797576	-0.20140892	-1.1516119	0.87388743	0.34813244
67	0.264	-1.2239609	0.072774881	-0.1090789	-0.82984739	0.039308457	0.12797206	-1.2532637	0.20688303	-0.14104913	-0.96750022	0.055478301	0.16561976	-1.2277376	0.20850636	-0.061592975	-0.95252593	0.078917706	0.081255216	-1.3103802	0.243444	-0.09585705	-1.0227769	0.031387645	0.11862911	-0.95535287	0.4340979	-0.15542523	-0.91182935	0.45374631	0.17822712	-0.93820725	0.3980362	-0.03855402	-0.90874634	0.45513144	0.050109613	-1.0062342	0.80935623	-0.16804058	-0.98585065	0.86598335	0.2149381	-0.94648695	0.92609888	-0.11253305	-0.92601334	0.95743111	0.13555357	-1.1363396	0.94121742	0.024410438	-0.97773444	1.4022936	-0.13345981	-1.0295058	1.3960438	0.18601962	-1.0882234	1.4347676	0.013327827	-1.0801333	1.0800367	-0.23698198	-1.1716376	1.0832122	0.22746562	-0.94024878	0.87773151	-0.20236259	-1.1427612	0.8739864	0.34886591
68	0.268	-1.2058788	0.072236284	-0.10814563	-0.82988239	0.03931181	0.12795034	-1.2398298	0.20490191	-0.13885794	-0.96810009	0.055595427	0.16549164	-1.2142253	0.20699589	-0.059507092	-0.95262659	0.078900949	0.081010603	-1.2976928	0.2401364	-0.093464377	-1.0228076	0.031521405	0.11853975	-0.94417443	0.43579235	-0.15425155	-0.91039536	0.45357716	0.17832913	-0.92674788	0.40015075	-0.037124106	-0.90735792	0.45499599	0.05016544	-1.000468	0.81064176	-0.16721584	-0.9814047	0.86640144	0.21551227	-0.9412364	0.92755592	-0.11187444	-0.9212685	0.9582506	0.13668415	-1.13082	0.94119593	0.024200026	-0.97249971	1.403171	-0.13289447	-1.0234191	1.3970924	0.18675095	-1.082543	1.4357768	0.014095768	-1.0766402	1.081567	-0.2359788	-1.1640798	1.0835774	0.2291735	-0.93907404	0.87754814	-0.20328723	-1.133854	0.87407492	0.34958175
